<?xml version="1.0" encoding="UTF-8"?>
<svg xmlns="http://www.w3.org/2000/svg" xmlns:svg="http://www.w3.org/2000/svg" width="40" height="40" version="1.1">
  <defs id="defs1068">
    <linearGradient id="a" x1="0.39" x2="0.6" y1="0.26" y2="1.02">
      <stop id="stop1055" offset="0" stop-color="#fc7c55"></stop>
      <stop id="stop1057" offset="0.89" stop-color="#f95b60"></stop>
      <stop id="stop1059" offset="1" stop-color="#f95762"></stop>
    </linearGradient>
  </defs>
  <g class="layer">
    <title>Layer 1</title>
    <path d="m38.8,18.76c-4.81,-12.62 -10.52,-18.76 -17.48,-18.76c-1.22,0 -2.47,0.2 -3.76,0.58c-0.09,0.02 -0.28,0.05 -0.42,0.14c-4.19,1.43 -8.42,5.46 -11.66,11.07c-3.08,5.35 -4.76,11.27 -4.52,15.85c0.6,11.15 11.96,12.36 16.82,12.36c2.42,0 5,-0.27 7.45,-0.79c7.67,-1.6 11.99,-3.94 14,-7.62c1.76,-3.23 1.62,-7.42 -0.43,-12.83zm-21.31,-17.58c1.31,-0.42 2.6,-0.63 3.84,-0.63c2.15,0 4.18,0.62 6.11,1.88c-2.49,-1.23 -4.88,-1.17 -7.07,-0.61c-7.58,1.95 -16.01,13.49 -17.82,18.24c2.36,-8.05 8.33,-16.74 14.94,-18.88zm7.63,37.51c-2.42,0.5 -4.96,0.77 -7.34,0.77c-4.58,0 -15.15,-1.1 -16.21,-11.06c0.45,2.16 1.59,3.98 3.62,5.12c4.33,2.44 10.28,4.42 17.05,5c1.26,0.11 2.47,0.11 3.6,0c-0.23,0.06 -0.48,0.12 -0.72,0.17zm9.19,-8.97c-0.01,0.02 -0.02,0.05 -0.03,0.07l0,0.01c-0.04,0.11 -0.08,0.21 -0.13,0.3l0,0.01c-0.02,0.04 -0.02,0.05 -0.02,0.05c-7.7,18.13 -39.83,-2.18 -27.37,-15.68c4.44,-4.82 13.79,-9.73 20.47,-8.73c9.71,1.45 9.7,17.14 7.08,23.97zm4.44,1.61c-0.47,0.87 -1.09,1.65 -1.87,2.38c1.2,-1.79 2.42,-4.96 1.64,-9.13c-0.66,-3.46 -2.2,-9.77 -4.42,-14.56c1.47,2.48 2.87,5.46 4.19,8.94c2,5.24 2.14,9.29 0.46,12.37z" fill="url(#a)" id="path1062"></path>
  </g>
</svg>
